<svg width="9" height="10" viewBox="0 0 9 10" fill="none" xmlns="http://www.w3.org/2000/svg">
<path d="M2.87548 3.70887C2.87548 3.84069 2.98235 3.94765 3.11426 3.94765C3.24615 3.94765 3.35309 3.8407 3.35309 3.70887C3.35309 3.57697 3.24614 3.47003 3.11426 3.47003C2.98236 3.47003 2.87548 3.57698 2.87548 3.70887Z" fill="black"/>
<path d="M6.36778 5.71473C6.36778 5.84663 6.47466 5.95357 6.60656 5.95357C6.73846 5.95357 6.8454 5.84662 6.8454 5.71473C6.8454 5.58284 6.73845 5.47595 6.60656 5.47595C6.47467 5.47595 6.36778 5.58283 6.36778 5.71473Z" fill="black"/>
<path d="M1.70983 5.71473C1.70983 5.84663 1.8167 5.95357 1.94861 5.95357C2.0805 5.95357 2.18744 5.84662 2.18744 5.71473C2.18744 5.58284 2.08049 5.47595 1.94861 5.47595C1.81671 5.47595 1.70983 5.58283 1.70983 5.71473Z" fill="black"/>
<path d="M5.20201 7.74049C5.20201 7.87239 5.30889 7.97932 5.44079 7.97932C5.57269 7.97932 5.67963 7.87238 5.67963 7.74049C5.67963 7.6086 5.57268 7.50171 5.44079 7.50171C5.3089 7.50171 5.20201 7.60858 5.20201 7.74049Z" fill="black"/>
<path d="M2.29814 3.30522C2.38638 3.39794 2.38252 3.54483 2.28973 3.63301C2.13233 3.78264 1.99083 3.95154 1.86966 4.13459C1.52212 4.66126 1.35945 5.27323 1.39911 5.9044C1.49891 7.49129 2.87239 8.70001 4.45899 8.60169C6.04616 8.50133 7.25585 7.12855 7.15573 5.54163C7.10724 4.77262 6.76236 4.06877 6.18445 3.55949C5.60683 3.05019 4.865 2.79677 4.09573 2.84485C3.96832 2.85235 3.85794 2.75578 3.84989 2.62787C3.84169 2.50025 3.93896 2.39008 4.06658 2.38202C4.95908 2.32525 5.82041 2.6203 6.49098 3.21159C7.16182 3.80273 7.56205 4.61969 7.61833 5.51219C7.7346 7.35475 6.33042 8.94794 4.48795 9.06419C4.41674 9.06875 4.34631 9.07092 4.27595 9.07092C2.5248 9.07092 1.04743 7.70416 0.936194 5.93318C0.89001 5.20082 1.07895 4.4906 1.48263 3.87873C1.62343 3.66631 1.78734 3.47035 1.9702 3.29675C2.06292 3.20852 2.20975 3.21217 2.29799 3.30516L2.29814 3.30522Z" fill="black"/>
<path d="M5.23373 3.58816C5.29646 3.47645 5.43796 3.43699 5.54959 3.49972C5.55113 3.50063 5.56143 3.50644 5.56297 3.50743C5.67202 3.57211 5.7044 3.71038 5.64083 3.82034C5.59829 3.89386 5.51959 3.93415 5.43899 3.93415C5.39912 3.93415 5.35875 3.9242 5.3221 3.90381C5.21045 3.84108 5.17107 3.69966 5.23372 3.58815L5.23373 3.58816Z" fill="black"/>
<path d="M6.17361 4.35152C6.28428 4.28683 6.42612 4.32391 6.49081 4.43436C6.49102 4.43478 6.49642 4.44382 6.49663 4.44431C6.56048 4.55497 6.52039 4.69206 6.40994 4.75652C6.37441 4.77706 6.3353 4.78666 6.29676 4.78666C6.21504 4.78666 6.13458 4.74349 6.09084 4.66899C6.02609 4.55833 6.06323 4.41641 6.17361 4.35152L6.17361 4.35152Z" fill="black"/>
<path d="M6.49461 7.0047C6.45235 7.0778 6.37723 7.11739 6.29922 7.11739C6.25892 7.11739 6.21799 7.10681 6.18022 7.08501C6.06934 7.02096 6.03402 6.87476 6.09808 6.76395C6.16235 6.65287 6.30399 6.61489 6.41485 6.67915C6.52593 6.74321 6.56371 6.88506 6.49965 6.99592L6.49461 7.0047Z" fill="black"/>
<path d="M2.25684 4.79541C2.21766 4.79541 2.17765 4.78525 2.14127 4.76416C2.03019 4.7001 1.99221 4.55846 2.05626 4.44739L2.06145 4.43877C2.1255 4.3279 2.26483 4.29426 2.3759 4.35852C2.48657 4.42258 2.5221 4.56849 2.45783 4.67936C2.41494 4.75386 2.33715 4.79542 2.25684 4.79542L2.25684 4.79541Z" fill="black"/>
<path d="M3.23433 7.54207C3.34604 7.60458 3.38613 7.74586 3.32389 7.85751C3.28135 7.93355 3.20244 7.9763 3.12121 7.9763C3.08302 7.9763 3.04426 7.96705 3.00852 7.94693C3.00677 7.94581 2.99625 7.93986 2.9945 7.93873C2.88545 7.87405 2.85308 7.73627 2.91622 7.62631C2.97936 7.51649 3.12346 7.48025 3.23432 7.54207L3.23433 7.54207Z" fill="black"/>
<path d="M4.04215 3.39364C4.04215 3.2656 4.14959 3.1618 4.27742 3.1618H4.28064C4.40868 3.1618 4.50751 3.26546 4.50751 3.39364C4.50751 3.52183 4.39867 3.62548 4.27056 3.62548C4.14266 3.62555 4.04217 3.52183 4.04217 3.39364H4.04215Z" fill="black"/>
<path d="M4.51404 8.0516C4.51404 8.17964 4.40562 8.28344 4.27743 8.28344H4.27631C4.14848 8.28344 4.04966 8.17978 4.04966 8.0516C4.04966 7.92342 4.15849 7.81976 4.28646 7.81976C4.4145 7.81983 4.51403 7.92349 4.51403 8.0516H4.51404Z" fill="black"/>
<path d="M2.38244 7.09582C2.34558 7.11734 2.30549 7.1275 2.26555 7.1275C2.18593 7.1275 2.10835 7.08657 2.06525 7.01298C2.06504 7.01256 2.05985 7.00373 2.05943 7.00303C1.99559 6.89237 2.03567 6.75528 2.14612 6.69102C2.2565 6.62675 2.4008 6.66817 2.46528 6.77855C2.53011 6.88928 2.49303 7.03091 2.38244 7.09582L2.38244 7.09582Z" fill="black"/>
<path d="M8.55495 5.72299C8.55495 8.08119 6.63613 10 4.27758 10C1.91902 10.0001 3.14713e-05 8.08119 3.14713e-05 5.72299C3.14713e-05 4.56607 0.462502 3.5155 1.21135 2.74475C1.21044 2.74363 1.20939 2.74279 1.20862 2.74153L0.88756 2.29061L0.845299 2.32074C0.804582 2.34969 0.757556 2.3637 0.71095 2.3637C0.638554 2.3637 0.56707 2.32978 0.521795 2.26622C0.447577 2.16187 0.472037 2.01714 0.576321 1.94292L0.783972 1.79497C0.79105 1.78846 0.797989 1.78159 0.805698 1.77598L1.35703 1.38352C1.36523 1.3777 1.37406 1.37335 1.38261 1.3688L1.61206 1.20551C1.71642 1.13129 1.86114 1.15575 1.93556 1.26003C2.00978 1.36438 1.98511 1.50911 1.88104 1.58333L1.81656 1.62903L2.10789 2.03852C2.54429 1.78061 3.03003 1.59847 3.54746 1.50889V1.13241H3.31106C3.18302 1.13241 3.07923 1.02855 3.07923 0.900361V0.231907C3.07923 0.103865 3.18288 7.00979e-05 3.31106 7.00979e-05L5.24441 0C5.37245 0 5.47624 0.103652 5.47624 0.231836V0.90056C5.47624 1.0286 5.37259 1.13261 5.24441 1.13261H5.00801V1.50909C5.46369 1.58779 5.89492 1.73825 6.28927 1.94942L6.51956 1.62571L6.45467 1.57952C6.35052 1.5051 6.32592 1.36044 6.40035 1.25603C6.47457 1.15167 6.61943 1.12749 6.72365 1.2015L7.75962 1.93878C7.86397 2.0132 7.88836 2.15786 7.81414 2.26228C7.76887 2.32584 7.69745 2.35976 7.62499 2.35976C7.57838 2.35976 7.53135 2.34574 7.49064 2.3168L7.4488 2.28701L7.21395 2.6169C8.03883 3.39727 8.55505 4.50037 8.55505 5.72288L8.55495 5.72299ZM4.27758 9.5364C6.38047 9.5364 8.09134 7.82574 8.09134 5.72299C8.09134 3.6201 6.38049 1.90923 4.27758 1.90923C2.17469 1.90923 0.463453 3.61989 0.463453 5.72299C0.463453 7.8257 2.17453 9.5364 4.27758 9.5364ZM1.43874 1.89828L1.26514 2.02205L1.5536 2.42748C1.60834 2.38221 1.66426 2.3382 1.72145 2.29552L1.43874 1.89828ZM5.01245 0.463756H3.54296V0.668752L3.77921 0.668822H5.01245V0.463756ZM4.54409 1.44562V1.13271H4.01104L4.01111 1.44562H4.54409ZM7.07022 2.01967L6.89662 1.89591L6.68687 2.19088C6.74553 2.23097 6.80314 2.27259 6.85956 2.31556L7.07022 2.01967Z" fill="black"/>
<path d="M4.27759 5.08592C4.6287 5.08592 4.91443 5.37165 4.91443 5.72276C4.91443 6.07409 4.6287 6.3596 4.27759 6.3596C3.92648 6.3596 3.64075 6.07409 3.64075 5.72276C3.64075 5.57678 3.6905 5.44264 3.77355 5.335L3.24028 4.43099C3.17518 4.32082 3.21183 4.17849 3.322 4.11359C3.43238 4.04849 3.57451 4.08535 3.63961 4.19566L4.17057 5.09574C4.20554 5.08957 4.24114 5.08593 4.27758 5.08593L4.27759 5.08592ZM4.27759 5.89588C4.37311 5.89588 4.45069 5.81829 4.45069 5.72277C4.45069 5.62725 4.37311 5.54967 4.27759 5.54967C4.18206 5.54967 4.10448 5.62725 4.10448 5.72277C4.10441 5.81829 4.18206 5.89588 4.27759 5.89588Z" fill="black"/>
</svg>
