<svg width="10" height="10" viewBox="0 0 10 10" fill="none" xmlns="http://www.w3.org/2000/svg">
<path d="M9.32592 1.6996C9.32592 1.18781 8.91019 0.77175 8.39807 0.77175H7.57697L7.57705 0.571417C7.57705 0.256439 7.32099 0.000318331 7.00595 0.000318331H6.95453C6.63955 0.000318331 6.38343 0.256378 6.38343 0.571417V0.77175H2.94284V0.571099C2.94284 0.256039 2.68648 0 2.37213 0H2.32039C2.00615 0 1.74968 0.25606 1.74968 0.571099V0.77183L0.927851 0.77175C0.416058 0.77175 0 1.1882 0 1.6996V8.39997C0 8.91176 0.416058 9.32782 0.927851 9.32782H5.5068C5.9836 9.74492 6.60612 9.99994 7.28716 9.99994C8.78284 9.99994 10 8.78319 10 7.28792C10 6.60576 9.74427 5.98331 9.32607 5.50611L9.32592 1.6996ZM6.81267 0.571425C6.81267 0.493938 6.87836 0.428569 6.95552 0.428569H7.00662C7.08411 0.428569 7.14948 0.493938 7.14948 0.571425V1.58999C7.14948 1.66716 7.08339 1.73253 7.00662 1.73253H6.95552C6.87764 1.73253 6.81267 1.66716 6.81267 1.58999V0.571425ZM2.1778 0.571106C2.1778 0.493619 2.24349 0.42825 2.32034 0.42825H2.37215C2.44964 0.42825 2.51501 0.493619 2.51501 0.571106V1.59039C2.51501 1.66755 2.44932 1.73292 2.37215 1.73292L2.32034 1.73284C2.24317 1.73284 2.1778 1.66747 2.1778 1.59031V0.571106ZM0.927806 1.2H1.74994V1.59039C1.74994 1.90504 2.00639 2.16148 2.32065 2.16148H2.37247C2.68712 2.16148 2.94357 1.90542 2.94357 1.59039L2.94349 1.2H6.38551V1.58998C6.38551 1.90463 6.64196 2.16108 6.95661 2.16108H7.00803C7.32301 2.16108 7.57913 1.90502 7.57913 1.58998V1.2H8.40022C8.67557 1.2 8.89989 1.42394 8.89989 1.69967V2.91858H0.427701V1.69961C0.427701 1.42426 0.652353 1.20002 0.927698 1.20002L0.927806 1.2ZM0.427809 8.39996V3.34713H8.89857V5.11179C8.44713 4.77682 7.8914 4.57608 7.28714 4.57608C5.79178 4.57608 4.57613 5.7925 4.57613 7.2879C4.57613 7.89186 4.77686 8.44828 5.11217 8.89967L0.927909 8.89959C0.652563 8.89959 0.427911 8.67535 0.427911 8.4L0.427809 8.39996ZM7.28716 9.5574C6.03645 9.5574 5.01819 8.53922 5.01819 7.28802C5.01819 6.03699 6.03637 5.01865 7.28716 5.01865C8.5389 5.01865 9.55673 6.03722 9.55673 7.28802C9.55785 8.53914 8.53888 9.5574 7.28716 9.5574Z" fill="black"/>
<path d="M8.77024 6.68669L7.90386 6.56066L7.51563 5.77566C7.43384 5.60921 7.1978 5.60993 7.11704 5.77494L6.72882 6.56065L5.8606 6.68709C5.76916 6.70032 5.69989 6.75565 5.67454 6.83568C5.64879 6.91532 5.67207 7.00102 5.73951 7.0664L6.36665 7.67784L6.21845 8.54143C6.20594 8.61357 6.22276 8.68181 6.26485 8.73212C6.30447 8.77891 6.36306 8.8057 6.42588 8.8057L6.50193 8.79645L7.31658 8.36859L8.09192 8.77684L8.16335 8.80649H8.20727L8.31473 8.79613L8.36759 8.73291C8.41048 8.68181 8.4269 8.61437 8.4151 8.54222L8.2665 7.67864L8.89364 7.06686C8.96045 7.00149 8.98365 6.9158 8.9583 6.83615C8.93279 6.75595 8.86208 6.70063 8.77024 6.68668L8.77024 6.68669ZM7.88281 7.55277L8.01674 8.33313L7.31569 7.96458L6.61536 8.33313L6.74929 7.55277L6.18289 7.00024L6.965 6.88664L7.31537 6.17738L7.66573 6.88664L8.44826 7.00024L7.88281 7.55277Z" fill="black"/>
</svg>
