<svg width="19" height="18" viewBox="0 0 19 18" fill="none" xmlns="http://www.w3.org/2000/svg">
<path d="M10.8976 17.768C10.544 17.768 10.2568 17.4807 10.2568 17.1272V12.9172H8.15737V17.1272C8.15737 17.4697 7.87003 17.7571 7.51657 17.7571C7.16294 17.7571 6.88669 17.4808 6.87576 17.1272V12.873C6.87576 12.1991 7.42825 11.6466 8.1022 11.6466H10.279C10.953 11.6466 11.5054 12.1991 11.5054 12.873V17.1272C11.5386 17.4918 11.2512 17.768 10.8976 17.768H10.8976Z" fill="black"/>
<path d="M3.09649 18C2.74287 18 2.45569 17.7127 2.45569 17.3592V10.8951H1.12964C1.06336 10.8951 0.997072 10.884 0.930785 10.862C0.798212 10.8177 0.444598 10.652 0.157226 10.0775C-0.119017 9.52499 0.0135562 9.01674 0.212412 8.75143C0.234455 8.72939 0.256654 8.70719 0.278698 8.68515L8.77593 0.187912C8.8974 0.0664404 9.05217 0 9.22897 0C9.39468 0 9.5604 0.0662865 9.68201 0.187912L12.1019 2.59671C12.345 2.83981 12.3561 3.24864 12.1019 3.49174C11.9804 3.61321 11.8257 3.67965 11.6489 3.67965C11.4831 3.67965 11.3174 3.61336 11.1958 3.49174L9.22897 1.52489L1.14058 9.61328H3.09634C3.44996 9.61328 3.73714 9.90062 3.73714 10.2541V16.7182H14.7427V10.2541C14.7427 9.90046 15.03 9.61328 15.3835 9.61328H17.0189L14.0244 6.62978C13.903 6.50831 13.8365 6.35354 13.8365 6.17674V3.60224C13.8365 3.24861 14.1239 2.96143 14.4773 2.96143C14.8309 2.96143 15.1181 3.24877 15.1181 3.60224L15.1183 5.93381L18.1459 8.95042C18.179 8.98356 18.2122 9.0278 18.2453 9.07189C18.3005 9.17132 18.5767 9.67954 18.3336 10.21C18.0905 10.7514 17.516 10.873 17.4054 10.884C17.3723 10.8951 17.3392 10.8951 17.2949 10.8951H16.0131V17.3591C16.0131 17.7128 15.7258 18 15.3723 18L3.09649 18Z" fill="black"/>
</svg>
