<svg width="9" height="10" viewBox="0 0 9 10" fill="none" xmlns="http://www.w3.org/2000/svg">
<path d="M0.833354 3.33333H1.83335C1.87755 3.33333 1.91996 3.31577 1.95121 3.28452C1.98246 3.25327 2.00002 3.21086 2.00002 3.16667V2.16667C2.00002 2.12247 1.98246 2.08006 1.95121 2.04881C1.91996 2.01756 1.87755 2 1.83335 2H0.833354C0.741316 2 0.666687 2.07463 0.666687 2.16667V3.16667C0.666687 3.21086 0.684247 3.25327 0.715497 3.28452C0.746746 3.31577 0.789157 3.33333 0.833354 3.33333ZM1.00002 2.33333H1.66669V3H1.00002V2.33333Z" fill="black"/>
<path d="M0.833354 5.00002H1.83335C1.87755 5.00002 1.91996 4.98246 1.95121 4.95121C1.98246 4.91996 2.00002 4.87755 2.00002 4.83335V3.83335C2.00002 3.78916 1.98246 3.74675 1.95121 3.7155C1.91996 3.68425 1.87755 3.66669 1.83335 3.66669H0.833354C0.741316 3.66669 0.666687 3.74132 0.666687 3.83335V4.83335C0.666687 4.87755 0.684247 4.91996 0.715497 4.95121C0.746746 4.98246 0.789157 5.00002 0.833354 5.00002ZM1.00002 4.00002H1.66669V4.66669H1.00002V4.00002Z" fill="black"/>
<path d="M0.833354 6.66665H1.83335C1.87755 6.66665 1.91996 6.64909 1.95121 6.61784C1.98246 6.58659 2.00002 6.54418 2.00002 6.49998V5.49998C2.00002 5.45578 1.98246 5.41337 1.95121 5.38212C1.91996 5.35087 1.87755 5.33331 1.83335 5.33331H0.833354C0.741316 5.33331 0.666687 5.40794 0.666687 5.49998V6.49998C0.666687 6.54418 0.684247 6.58659 0.715497 6.61784C0.746746 6.64909 0.789157 6.66665 0.833354 6.66665ZM1.00002 5.66665H1.66669V6.33331H1.00002V5.66665Z" fill="black"/>
<path d="M0.833354 8.33333H1.83335C1.87755 8.33333 1.91996 8.31577 1.95121 8.28452C1.98246 8.25327 2.00002 8.21086 2.00002 8.16667V7.16667C2.00002 7.12247 1.98246 7.08006 1.95121 7.04881C1.91996 7.01756 1.87755 7 1.83335 7H0.833354C0.741316 7 0.666687 7.07463 0.666687 7.16667V8.16667C0.666687 8.21086 0.684247 8.25327 0.715497 8.28452C0.746746 8.31577 0.789157 8.33333 0.833354 8.33333ZM1.00002 7.33333H1.66669V8H1.00002V7.33333Z" fill="black"/>
<path d="M2.49998 2C2.40794 2 2.33331 2.07463 2.33331 2.16667V3.16667C2.33331 3.21086 2.35087 3.25327 2.38212 3.28452C2.41337 3.31577 2.45578 3.33333 2.49998 3.33333H7.49998C7.54418 3.33333 7.58659 3.31577 7.61784 3.28452C7.64909 3.25327 7.66665 3.21086 7.66665 3.16667V2.16667C7.66665 2.12247 7.64909 2.08006 7.61784 2.04881C7.58659 2.01756 7.54418 2 7.49998 2H2.49998ZM7.33331 3H2.66665V2.33333H7.33331V3Z" fill="black"/>
<path d="M7.49998 3.66669H2.49998C2.40794 3.66669 2.33331 3.74132 2.33331 3.83335V4.83335C2.33331 4.87755 2.35087 4.91996 2.38212 4.95121C2.41337 4.98246 2.45578 5.00002 2.49998 5.00002H7.49998C7.54418 5.00002 7.58659 4.98246 7.61784 4.95121C7.64909 4.91996 7.66665 4.87755 7.66665 4.83335V3.83335C7.66665 3.78916 7.64909 3.74675 7.61784 3.7155C7.58659 3.68425 7.54418 3.66669 7.49998 3.66669ZM7.33331 4.66669H2.66665V4.00002H7.33331V4.66669Z" fill="black"/>
<path d="M7.49998 5.33331H2.49998C2.40794 5.33331 2.33331 5.40794 2.33331 5.49998V6.49998C2.33331 6.54418 2.35087 6.58659 2.38212 6.61784C2.41337 6.64909 2.45578 6.66665 2.49998 6.66665H7.49998C7.54418 6.66665 7.58659 6.64909 7.61784 6.61784C7.64909 6.58659 7.66665 6.54418 7.66665 6.49998V5.49998C7.66665 5.45578 7.64909 5.41337 7.61784 5.38212C7.58659 5.35087 7.54418 5.33331 7.49998 5.33331ZM7.33331 6.33331H2.66665V5.66665H7.33331V6.33331Z" fill="black"/>
<path d="M7.49998 7H2.49998C2.40794 7 2.33331 7.07463 2.33331 7.16667V8.16667C2.33331 8.21086 2.35087 8.25327 2.38212 8.28452C2.41337 8.31577 2.45578 8.33333 2.49998 8.33333H7.49998C7.54418 8.33333 7.58659 8.31577 7.61784 8.28452C7.64909 8.25327 7.66665 8.21086 7.66665 8.16667V7.16667C7.66665 7.12247 7.64909 7.08006 7.61784 7.04881C7.58659 7.01756 7.54418 7 7.49998 7ZM7.33331 8H2.66665V7.33333H7.33331V8Z" fill="black"/>
<path d="M7.49998 8.66669C7.40794 8.66669 7.33331 8.74132 7.33331 8.83335V9.00002H3.99998C3.90794 9.00002 3.83331 9.07465 3.83331 9.16669C3.83331 9.25873 3.90794 9.33335 3.99998 9.33335H7.49998C7.54418 9.33335 7.58659 9.31579 7.61784 9.28454C7.64909 9.25329 7.66665 9.21088 7.66665 9.16669V8.83335C7.66665 8.78916 7.64909 8.74675 7.61784 8.7155C7.58659 8.68425 7.54418 8.66669 7.49998 8.66669Z" fill="black"/>
<path d="M3.33331 9H2.99998C2.90794 9 2.83331 9.07463 2.83331 9.16667C2.83331 9.2587 2.90794 9.33333 2.99998 9.33333H3.33331C3.42535 9.33333 3.49998 9.2587 3.49998 9.16667C3.49998 9.07463 3.42535 9 3.33331 9Z" fill="black"/>
<path d="M2.33335 9H0.833354C0.741316 9 0.666687 9.07463 0.666687 9.16667C0.666687 9.2587 0.741316 9.33333 0.833354 9.33333H2.33335C2.42539 9.33333 2.50002 9.2587 2.50002 9.16667C2.50002 9.07463 2.42539 9 2.33335 9Z" fill="black"/>
<path d="M8.16667 0.666667H6.83333V0.166667C6.83333 0.12247 6.81577 0.0800591 6.78452 0.0488095C6.75327 0.01756 6.71086 0 6.66667 0H1.66667C1.57463 0 1.5 0.0746286 1.5 0.166667V0.666667H0.166667C0.0746286 0.666667 0 0.741295 0 0.833333V9.83333C0 9.87753 0.0175596 9.91994 0.0488095 9.95119C0.0800594 9.98244 0.12247 10 0.166667 10H8.16667C8.21086 10 8.25327 9.98244 8.28452 9.95119C8.31577 9.91994 8.33333 9.87753 8.33333 9.83333V0.833333C8.33333 0.789137 8.31577 0.746726 8.28452 0.715476C8.25327 0.684227 8.21086 0.666667 8.16667 0.666667ZM1.83333 0.333333H6.5V1.33333H1.83333V0.333333ZM8 9.66667H0.333333V1H1.5V1.5C1.5 1.5442 1.51756 1.58661 1.54881 1.61786C1.58006 1.64911 1.62247 1.66667 1.66667 1.66667H6.66667C6.71086 1.66667 6.75327 1.64911 6.78452 1.61786C6.81577 1.58661 6.83333 1.5442 6.83333 1.5V1H8V9.66667Z" fill="black"/>
</svg>
