<svg width="14" height="18" viewBox="0 0 14 18" fill="none" xmlns="http://www.w3.org/2000/svg">
<path d="M13.1666 14.4526C13.5022 14.0691 13.6701 13.5658 13.6221 13.0625C13.5741 12.4872 13.0229 11.7683 12.3757 10.9293C12.3277 10.8574 12.2558 10.7615 12.2078 10.7136V6.75886C12.2078 3.95462 10.0986 1.58179 7.41427 1.29418V0.599197C7.41427 0.263655 7.15061 0 6.81507 0C6.47953 0 6.21587 0.263655 6.21587 0.599197V1.29418C5.04141 1.41405 3.93897 1.94136 3.07612 2.78015C2.02149 3.81068 1.4223 5.17693 1.4223 6.6629V10.7374C1.37431 10.8093 1.30242 10.8812 1.25444 10.9531C0.607265 11.792 0.0560462 12.5109 0.00806759 13.0862C-0.0399153 13.5896 0.127942 14.0929 0.4635 14.4764C0.799042 14.8599 1.27837 15.0755 1.80566 15.0755H11.8722C12.3278 15.0518 12.8071 14.8361 13.1667 14.4526H13.1666ZM1.30254 13.6377C1.18267 13.5179 1.13468 13.3502 1.15876 13.1823C1.20674 12.8947 1.92582 11.9839 2.16541 11.6723C2.50095 11.2409 2.59674 11.1211 2.59674 10.8813V6.66303C2.59674 5.51262 3.05218 4.43411 3.86704 3.64312C4.65798 2.87607 5.68856 2.46865 6.76724 2.46865H6.91102C9.13995 2.54054 10.9616 4.48191 10.9616 6.78287V10.9053C10.9616 11.1451 11.0574 11.2648 11.393 11.6963C11.6327 11.9839 12.3516 12.8947 12.3996 13.1823C12.4235 13.3501 12.3516 13.5178 12.2558 13.6377C12.136 13.7576 11.9922 13.8295 11.8004 13.8295H1.75787C1.59018 13.8534 1.42233 13.7815 1.30261 13.6377L1.30254 13.6377Z" fill="black"/>
<path d="M7.91764 15.9865C7.74979 16.4659 7.29452 16.7775 6.79115 16.7775C6.28779 16.7775 5.83252 16.4658 5.66466 15.9865C5.54479 15.6749 5.20923 15.5072 4.89761 15.6271C4.58598 15.747 4.41829 16.0825 4.53816 16.3941C4.8737 17.3528 5.78453 18 6.79118 18C7.79783 18 8.70865 17.3528 9.0442 16.3941C9.16408 16.0825 8.99622 15.747 8.68475 15.6271C8.37312 15.5072 8.03758 15.6749 7.9177 15.9865H7.91764Z" fill="black"/>
</svg>
