<svg width="18" height="18" viewBox="0 0 18 18" fill="none" xmlns="http://www.w3.org/2000/svg">
<path fill-rule="evenodd" clip-rule="evenodd" d="M13.113 9.62945C13.0951 9.81524 13.2227 10.0049 13.4015 10.0586C14.5339 10.4036 15.4962 10.9 16.1568 11.5094C16.8176 12.1187 17.1814 12.8184 17.1814 13.6793V17.1856H0.814552V13.6793C0.814552 12.8471 1.15318 12.1653 1.77547 11.5666C2.3976 10.968 3.30896 10.4742 4.38449 10.122C4.56573 10.0648 4.69101 9.86705 4.66545 9.67872C4.63988 9.49037 4.4663 9.33328 4.2764 9.3266C4.22697 9.3239 4.17712 9.33043 4.1301 9.34577C2.97232 9.72489 1.9546 10.2578 1.20931 10.9749C0.464023 11.6919 0.000254326 12.6154 0.000254326 13.6793V17.5163C-0.00727383 17.8477 0.152239 17.9768 0.490313 18H17.5124C17.8601 17.9914 17.9865 17.8126 17.996 17.5099V13.6791C17.996 12.5796 17.4983 11.6374 16.7106 10.911C15.9229 10.1846 14.8512 9.65195 13.6371 9.28192C13.6 9.27013 13.5614 9.2636 13.5226 9.26275C13.2796 9.21175 13.1347 9.45763 13.1132 9.62906L13.113 9.62945Z" fill="black"/>
<path fill-rule="evenodd" clip-rule="evenodd" d="M8.91678 0C6.24398 0 4.16418 2.61371 4.16418 5.72639C4.16418 8.84648 6.24496 11.4528 8.91678 11.4528C11.5887 11.4528 13.6694 8.8463 13.6694 5.72639C13.6694 2.61382 11.5898 0 8.91678 0V0ZM8.91678 0.81445C11.0504 0.81445 12.8545 2.97334 12.8545 5.72631C12.8545 8.48773 11.0513 10.6382 8.91678 10.6382C6.78229 10.6382 4.97871 8.4878 4.97871 5.72631C4.97871 2.97341 6.78306 0.81445 8.91678 0.81445V0.81445Z" fill="black"/>
</svg>
