<svg width="10" height="10" viewBox="0 0 10 10" fill="none" xmlns="http://www.w3.org/2000/svg">
<path d="M5 10C2.23866 10 0 7.76156 0 5C0 2.23844 2.23844 0 5 0C7.76156 0 10 2.23844 10 5C10 7.76156 7.76156 10 5 10ZM5 9.66038C7.57375 9.66038 9.66017 7.57392 9.66017 5.00022C9.66017 2.42651 7.57371 0.340047 5 0.340047C2.4263 0.340047 0.339831 2.42651 0.339831 5.00022C0.339831 7.57392 2.4263 9.66038 5 9.66038Z" fill="black"/>
<path d="M6.8158 2.64661L7.83566 3.66647L4.1195 7.38261L2.04474 5.30785L3.02542 4.29886L4.09447 5.3679L6.8158 2.64661ZM2.52154 5.30466L4.1194 6.90251L7.35535 3.66657L6.81584 3.12701L4.09438 5.84845L3.02879 4.78286L2.52154 5.30466Z" fill="black"/>
</svg>
