<svg width="19" height="18" viewBox="0 0 19 18" fill="none" xmlns="http://www.w3.org/2000/svg">
<path d="M17.9126 6.72453C17.8141 6.42291 17.634 6.15457 17.3922 5.94926C17.1506 5.74392 16.8567 5.60946 16.5432 5.56098L12.4033 4.91813L10.5455 0.990126C10.3639 0.594094 10.0372 0.283138 9.63268 0.121287C9.22816 -0.0404289 8.77702 -0.0404289 8.37251 0.121287C7.96799 0.283145 7.64127 0.594094 7.45973 0.990126L5.60193 4.93098L1.46198 5.57383C1.14844 5.62233 0.854574 5.75664 0.612935 5.96211C0.37115 6.16745 0.191078 6.4358 0.0926305 6.73728C-0.0115443 7.04507 -0.0281923 7.37569 0.0444168 7.69237C0.117026 8.00906 0.276159 8.29933 0.504036 8.53094L3.52543 11.6166L2.81198 15.9685C2.75544 16.2938 2.79246 16.6285 2.91874 16.9335C3.04515 17.2385 3.25552 17.5014 3.52544 17.6915C3.81185 17.8921 4.15294 17.9999 4.50265 18C4.78648 18.0006 5.06556 17.9275 5.31267 17.7879L9.00264 15.7565L12.6988 17.7879C12.9745 17.9416 13.288 18.0141 13.6031 17.997C13.9182 17.9799 14.2222 17.874 14.4796 17.6915C14.7495 17.5014 14.9598 17.2385 15.0863 16.9335C15.2126 16.6285 15.2496 16.2939 15.193 15.9685L14.4794 11.6038L17.5008 8.51809H17.501C17.7288 8.28649 17.888 7.9962 17.9606 7.67952C18.0332 7.36283 18.0166 7.03222 17.9124 6.72457L17.9126 6.72453ZM17.0447 8.06805L13.959 11.218C13.85 11.3251 13.8018 11.4795 13.8305 11.6294L14.5568 16.0717C14.593 16.2777 14.5697 16.4898 14.4901 16.6832C14.4104 16.8767 14.2776 17.0436 14.1068 17.1645C13.9485 17.2783 13.7611 17.3448 13.5665 17.3562C13.3718 17.3676 13.1781 17.3234 13.0075 17.2288L9.19556 15.1266C9.07503 15.0626 8.93038 15.0626 8.80985 15.1266L4.99793 17.2288C4.82631 17.3198 4.63303 17.3618 4.43931 17.3505C4.24545 17.3392 4.05834 17.2749 3.89862 17.1645C3.72786 17.0436 3.59499 16.8767 3.51533 16.6832C3.43569 16.4898 3.41245 16.2777 3.44861 16.0717L4.17496 11.6294C4.20366 11.4795 4.15544 11.3251 4.04639 11.218L0.960706 8.06805C0.817358 7.9204 0.717485 7.73601 0.67214 7.53526C0.626652 7.33451 0.637558 7.12516 0.703565 6.93014C0.763545 6.74044 0.875471 6.57126 1.02657 6.44183C1.17767 6.31225 1.36191 6.22759 1.55863 6.19732L5.82054 5.55447C5.96016 5.53165 6.07869 5.43967 6.13551 5.31024L8.06406 1.2669C8.17484 1.01636 8.37874 0.818776 8.6326 0.715883C8.88644 0.613141 9.17028 0.613141 9.42426 0.715883C9.6781 0.818768 9.88201 1.01636 9.99265 1.2669L11.9212 5.31024C11.9782 5.43967 12.0967 5.53165 12.2362 5.55447L16.4981 6.19732H16.4982C16.6948 6.22759 16.8792 6.31225 17.0301 6.44183C17.1812 6.57126 17.2932 6.74044 17.3531 6.93014C17.4128 7.12974 17.4154 7.34211 17.3609 7.54316C17.3065 7.74405 17.1969 7.926 17.0446 8.06805H17.0447Z" fill="black"/>
</svg>
